<svg width="167" height="64" viewBox="0 0 167 64" fill="none" xmlns="http://www.w3.org/2000/svg">
<g filter="url(#filter0_d)">
<rect x="4" width="159" height="56" rx="4" fill="#E5ECF4"/>
<g clip-path="url(#clip0)">
<path d="M64.5 40H59.74L59.06 43H56.3L59.64 29H64.6L67.94 43H65.18L64.5 40ZM60.3 37.48H63.92L62.3 30.32H61.94L60.3 37.48ZM70.9132 47H68.3932V33.08H70.9132V34.52H71.2732C71.5399 33.9733 71.9266 33.5533 72.4332 33.26C72.9399 32.9533 73.5866 32.8 74.3732 32.8C74.9599 32.8 75.5132 32.9133 76.0332 33.14C76.5666 33.3667 77.0266 33.7 77.4132 34.14C77.8132 34.5667 78.1266 35.0933 78.3532 35.72C78.5932 36.3467 78.7132 37.06 78.7132 37.86V38.22C78.7132 39.0333 78.5999 39.7533 78.3732 40.38C78.1466 41.0067 77.8399 41.54 77.4532 41.98C77.0666 42.4067 76.6066 42.7333 76.0732 42.96C75.5532 43.1733 74.9866 43.28 74.3732 43.28C73.9199 43.28 73.5266 43.2333 73.1932 43.14C72.8599 43.0467 72.5666 42.92 72.3132 42.76C72.0732 42.6 71.8666 42.42 71.6932 42.22C71.5332 42.0067 71.3932 41.7867 71.2732 41.56H70.9132V47ZM73.5532 40.88C74.3399 40.88 74.9732 40.64 75.4532 40.16C75.9466 39.6667 76.1932 39 76.1932 38.16V37.92C76.1932 37.08 75.9466 36.42 75.4532 35.94C74.9732 35.4467 74.3399 35.2 73.5532 35.2C72.7666 35.2 72.1266 35.4533 71.6332 35.96C71.1532 36.4533 70.9132 37.1067 70.9132 37.92V38.16C70.9132 38.9733 71.1532 39.6333 71.6332 40.14C72.1266 40.6333 72.7666 40.88 73.5532 40.88ZM82.2665 47H79.7465V33.08H82.2665V34.52H82.6265C82.8931 33.9733 83.2798 33.5533 83.7865 33.26C84.2931 32.9533 84.9398 32.8 85.7265 32.8C86.3131 32.8 86.8665 32.9133 87.3865 33.14C87.9198 33.3667 88.3798 33.7 88.7665 34.14C89.1665 34.5667 89.4798 35.0933 89.7065 35.72C89.9465 36.3467 90.0665 37.06 90.0665 37.86V38.22C90.0665 39.0333 89.9531 39.7533 89.7265 40.38C89.4998 41.0067 89.1931 41.54 88.8065 41.98C88.4198 42.4067 87.9598 42.7333 87.4265 42.96C86.9065 43.1733 86.3398 43.28 85.7265 43.28C85.2731 43.28 84.8798 43.2333 84.5465 43.14C84.2131 43.0467 83.9198 42.92 83.6665 42.76C83.4265 42.6 83.2198 42.42 83.0465 42.22C82.8865 42.0067 82.7465 41.7867 82.6265 41.56H82.2665V47ZM84.9065 40.88C85.6931 40.88 86.3265 40.64 86.8065 40.16C87.2998 39.6667 87.5465 39 87.5465 38.16V37.92C87.5465 37.08 87.2998 36.42 86.8065 35.94C86.3265 35.4467 85.6931 35.2 84.9065 35.2C84.1198 35.2 83.4798 35.4533 82.9865 35.96C82.5065 36.4533 82.2665 37.1067 82.2665 37.92V38.16C82.2665 38.9733 82.5065 39.6333 82.9865 40.14C83.4798 40.6333 84.1198 40.88 84.9065 40.88ZM98.5797 33.28C98.5797 32.72 98.3597 32.2333 97.9197 31.82C97.493 31.4067 96.8864 31.2 96.0997 31.2C95.433 31.2 94.9064 31.34 94.5197 31.62C94.133 31.8867 93.9397 32.2533 93.9397 32.72C93.9397 32.96 93.9864 33.18 94.0797 33.38C94.173 33.5667 94.333 33.74 94.5597 33.9C94.7997 34.0467 95.1064 34.18 95.4797 34.3C95.8664 34.42 96.353 34.5333 96.9397 34.64C98.4064 34.9067 99.5264 35.3533 100.3 35.98C101.073 36.6067 101.46 37.5333 101.46 38.76V39C101.46 39.6533 101.34 40.2467 101.1 40.78C100.873 41.3 100.54 41.7467 100.1 42.12C99.6597 42.4933 99.1264 42.78 98.4997 42.98C97.873 43.18 97.1664 43.28 96.3797 43.28C95.4597 43.28 94.6464 43.1533 93.9397 42.9C93.2464 42.6333 92.6664 42.2733 92.1997 41.82C91.733 41.3533 91.3797 40.8133 91.1397 40.2C90.8997 39.5733 90.7797 38.8933 90.7797 38.16V37.56H93.4197V38.04C93.4197 38.88 93.6597 39.5533 94.1397 40.06C94.633 40.5533 95.393 40.8 96.4197 40.8C97.2197 40.8 97.813 40.6267 98.1997 40.28C98.5864 39.9333 98.7797 39.52 98.7797 39.04C98.7797 38.8133 98.7397 38.6 98.6597 38.4C98.5797 38.1867 98.4397 38 98.2397 37.84C98.0397 37.6667 97.7664 37.5133 97.4197 37.38C97.073 37.2467 96.633 37.1333 96.0997 37.04C95.393 36.92 94.7464 36.7667 94.1597 36.58C93.573 36.38 93.0597 36.12 92.6197 35.8C92.193 35.48 91.8597 35.08 91.6197 34.6C91.3797 34.12 91.2597 33.5333 91.2597 32.84V32.72C91.2597 32.1467 91.373 31.62 91.5997 31.14C91.8397 30.6467 92.1664 30.22 92.5797 29.86C93.0064 29.5 93.513 29.22 94.0997 29.02C94.6997 28.82 95.3664 28.72 96.0997 28.72C96.9264 28.72 97.6597 28.84 98.2997 29.08C98.9397 29.3067 99.473 29.62 99.8997 30.02C100.34 30.42 100.666 30.88 100.88 31.4C101.106 31.92 101.22 32.4667 101.22 33.04V33.76H98.5797V33.28ZM102.693 33.08H105.633V29H108.153V33.08H111.733V35.48H108.153V40C108.153 40.4 108.333 40.6 108.693 40.6H111.373V43H107.173C106.72 43 106.346 42.8533 106.053 42.56C105.773 42.2667 105.633 41.8933 105.633 41.44V35.48H102.693V33.08ZM124.046 38.16C124.046 38.9867 123.906 39.72 123.626 40.36C123.346 40.9867 122.966 41.52 122.486 41.96C122.006 42.3867 121.453 42.7133 120.826 42.94C120.213 43.1667 119.566 43.28 118.886 43.28C118.206 43.28 117.553 43.1667 116.926 42.94C116.313 42.7133 115.766 42.3867 115.286 41.96C114.806 41.52 114.426 40.9867 114.146 40.36C113.866 39.72 113.726 38.9867 113.726 38.16V37.92C113.726 37.1067 113.866 36.3867 114.146 35.76C114.426 35.12 114.806 34.58 115.286 34.14C115.766 33.7 116.313 33.3667 116.926 33.14C117.553 32.9133 118.206 32.8 118.886 32.8C119.566 32.8 120.213 32.9133 120.826 33.14C121.453 33.3667 122.006 33.7 122.486 34.14C122.966 34.58 123.346 35.12 123.626 35.76C123.906 36.3867 124.046 37.1067 124.046 37.92V38.16ZM118.886 40.88C119.246 40.88 119.586 40.82 119.906 40.7C120.226 40.58 120.506 40.4067 120.746 40.18C120.986 39.9533 121.173 39.68 121.306 39.36C121.453 39.0267 121.526 38.6533 121.526 38.24V37.84C121.526 37.4267 121.453 37.06 121.306 36.74C121.173 36.4067 120.986 36.1267 120.746 35.9C120.506 35.6733 120.226 35.5 119.906 35.38C119.586 35.26 119.246 35.2 118.886 35.2C118.526 35.2 118.186 35.26 117.866 35.38C117.546 35.5 117.266 35.6733 117.026 35.9C116.786 36.1267 116.593 36.4067 116.446 36.74C116.313 37.06 116.246 37.4267 116.246 37.84V38.24C116.246 38.6533 116.313 39.0267 116.446 39.36C116.593 39.68 116.786 39.9533 117.026 40.18C117.266 40.4067 117.546 40.58 117.866 40.7C118.186 40.82 118.526 40.88 118.886 40.88ZM125.199 33.08H129.399V34.52H129.759C129.946 33.9733 130.259 33.5533 130.699 33.26C131.153 32.9533 131.693 32.8 132.319 32.8C133.306 32.8 134.099 33.1133 134.699 33.74C135.299 34.3533 135.599 35.2933 135.599 36.56V37L132.999 37.24V36.96C132.999 36.4133 132.859 35.98 132.579 35.66C132.299 35.3267 131.879 35.16 131.319 35.16C130.759 35.16 130.319 35.3533 129.999 35.74C129.679 36.1267 129.519 36.68 129.519 37.4V40.6H131.799V43H124.959V40.6H126.999V35.48H125.199V33.08ZM139.253 38.86C139.266 39.1533 139.333 39.4267 139.453 39.68C139.586 39.92 139.759 40.1333 139.973 40.32C140.199 40.4933 140.453 40.6333 140.733 40.74C141.026 40.8333 141.333 40.88 141.653 40.88C142.279 40.88 142.759 40.7733 143.093 40.56C143.426 40.3333 143.666 40.0667 143.813 39.76L145.973 40.96C145.853 41.2133 145.686 41.48 145.473 41.76C145.259 42.0267 144.979 42.2733 144.633 42.5C144.299 42.7267 143.886 42.9133 143.393 43.06C142.913 43.2067 142.346 43.28 141.693 43.28C140.946 43.28 140.266 43.16 139.653 42.92C139.039 42.68 138.506 42.3333 138.053 41.88C137.613 41.4267 137.266 40.8733 137.013 40.22C136.773 39.5667 136.653 38.8267 136.653 38V37.88C136.653 37.12 136.779 36.4267 137.033 35.8C137.299 35.1733 137.659 34.64 138.113 34.2C138.566 33.76 139.093 33.42 139.693 33.18C140.306 32.9267 140.959 32.8 141.653 32.8C142.506 32.8 143.239 32.9533 143.853 33.26C144.466 33.5533 144.973 33.9333 145.373 34.4C145.773 34.8533 146.066 35.36 146.253 35.92C146.439 36.4667 146.533 37 146.533 37.52V38.86H139.253ZM141.633 35.08C140.993 35.08 140.473 35.2467 140.073 35.58C139.673 35.9 139.413 36.2733 139.293 36.7H143.973C143.893 36.2333 143.639 35.8467 143.213 35.54C142.799 35.2333 142.273 35.08 141.633 35.08Z" fill="#495567"/>
<path d="M60.25 17.5H57.87L57.53 19H56.15L57.82 12H60.3L61.97 19H60.59L60.25 17.5ZM58.15 16.24H59.96L59.15 12.66H58.97L58.15 16.24ZM62.1066 14.04H63.4666L64.6366 18.4H64.8166L65.9866 14.04H67.3466L65.9266 19H63.5266L62.1066 14.04ZM71.3432 18.28C71.2099 18.5933 71.0232 18.8167 70.7832 18.95C70.5432 19.0767 70.2632 19.14 69.9432 19.14C69.6432 19.14 69.3599 19.0833 69.0932 18.97C68.8332 18.8567 68.6032 18.69 68.4032 18.47C68.2032 18.25 68.0432 17.9833 67.9232 17.67C67.8099 17.3567 67.7532 17 67.7532 16.6V16.44C67.7532 16.0467 67.8099 15.6933 67.9232 15.38C68.0366 15.0667 68.1899 14.8 68.3832 14.58C68.5766 14.36 68.7999 14.1933 69.0532 14.08C69.3132 13.96 69.5899 13.9 69.8832 13.9C70.2366 13.9 70.5199 13.96 70.7332 14.08C70.9532 14.2 71.1266 14.3867 71.2532 14.64H71.4332V14.04H72.6932V17.5C72.6932 17.7 72.7832 17.8 72.9632 17.8H73.1532V19H72.2932C72.0666 19 71.8799 18.9333 71.7332 18.8C71.5932 18.6667 71.5232 18.4933 71.5232 18.28H71.3432ZM70.2232 17.94C70.5899 17.94 70.8832 17.82 71.1032 17.58C71.3232 17.3333 71.4332 17 71.4332 16.58V16.46C71.4332 16.04 71.3232 15.71 71.1032 15.47C70.8832 15.2233 70.5899 15.1 70.2232 15.1C69.8566 15.1 69.5632 15.2233 69.3432 15.47C69.1232 15.71 69.0132 16.04 69.0132 16.46V16.58C69.0132 17 69.1232 17.3333 69.3432 17.58C69.5632 17.82 69.8566 17.94 70.2232 17.94ZM73.8999 17.8H75.5799V15.24H74.0199V14.04H76.8399V17.8H78.2799V19H73.8999V17.8ZM77.1499 12.57C77.1499 12.7033 77.1232 12.83 77.0699 12.95C77.0232 13.0633 76.9565 13.1633 76.8699 13.25C76.7832 13.33 76.6799 13.3967 76.5599 13.45C76.4465 13.4967 76.3265 13.52 76.1999 13.52C76.0665 13.52 75.9432 13.4967 75.8299 13.45C75.7165 13.3967 75.6165 13.33 75.5299 13.25C75.4432 13.1633 75.3732 13.0633 75.3199 12.95C75.2732 12.83 75.2499 12.7033 75.2499 12.57C75.2499 12.4367 75.2732 12.3133 75.3199 12.2C75.3732 12.08 75.4432 11.98 75.5299 11.9C75.6165 11.8133 75.7165 11.7467 75.8299 11.7C75.9432 11.6467 76.0665 11.62 76.1999 11.62C76.3265 11.62 76.4465 11.6467 76.5599 11.7C76.6799 11.7467 76.7832 11.8133 76.8699 11.9C76.9565 11.98 77.0232 12.08 77.0699 12.2C77.1232 12.3133 77.1499 12.4367 77.1499 12.57ZM79.4565 17.8H81.1965V13.2H79.5165V12H82.4565V17.8H84.0765V19H79.4565V17.8ZM88.3731 18.28C88.2398 18.5933 88.0531 18.8167 87.8131 18.95C87.5731 19.0767 87.2931 19.14 86.9731 19.14C86.6731 19.14 86.3898 19.0833 86.1231 18.97C85.8631 18.8567 85.6331 18.69 85.4331 18.47C85.2331 18.25 85.0731 17.9833 84.9531 17.67C84.8398 17.3567 84.7831 17 84.7831 16.6V16.44C84.7831 16.0467 84.8398 15.6933 84.9531 15.38C85.0664 15.0667 85.2198 14.8 85.4131 14.58C85.6064 14.36 85.8298 14.1933 86.0831 14.08C86.3431 13.96 86.6198 13.9 86.9131 13.9C87.2664 13.9 87.5498 13.96 87.7631 14.08C87.9831 14.2 88.1564 14.3867 88.2831 14.64H88.4631V14.04H89.7231V17.5C89.7231 17.7 89.8131 17.8 89.9931 17.8H90.1831V19H89.3231C89.0964 19 88.9098 18.9333 88.7631 18.8C88.6231 18.6667 88.5531 18.4933 88.5531 18.28H88.3731ZM87.2531 17.94C87.6198 17.94 87.9131 17.82 88.1331 17.58C88.3531 17.3333 88.4631 17 88.4631 16.58V16.46C88.4631 16.04 88.3531 15.71 88.1331 15.47C87.9131 15.2233 87.6198 15.1 87.2531 15.1C86.8864 15.1 86.5931 15.2233 86.3731 15.47C86.1531 15.71 86.0431 16.04 86.0431 16.46V16.58C86.0431 17 86.1531 17.3333 86.3731 17.58C86.5931 17.82 86.8864 17.94 87.2531 17.94ZM91.8897 19H90.6297V12H91.8897V14.76H92.0697C92.203 14.4867 92.3964 14.2767 92.6497 14.13C92.903 13.9767 93.2264 13.9 93.6197 13.9C93.913 13.9 94.1897 13.9567 94.4497 14.07C94.7164 14.1833 94.9464 14.35 95.1397 14.57C95.3397 14.7833 95.4964 15.0467 95.6097 15.36C95.7297 15.6733 95.7897 16.03 95.7897 16.43V16.61C95.7897 17.0167 95.733 17.3767 95.6197 17.69C95.5064 18.0033 95.353 18.27 95.1597 18.49C94.9664 18.7033 94.7364 18.8667 94.4697 18.98C94.2097 19.0867 93.9264 19.14 93.6197 19.14C93.393 19.14 93.1964 19.1167 93.0297 19.07C92.863 19.0233 92.7164 18.96 92.5897 18.88C92.4697 18.8 92.3664 18.71 92.2797 18.61C92.1997 18.5033 92.1297 18.3933 92.0697 18.28H91.8897V19ZM93.2097 17.94C93.603 17.94 93.9197 17.82 94.1597 17.58C94.4064 17.3333 94.5297 17 94.5297 16.58V16.46C94.5297 16.04 94.4064 15.71 94.1597 15.47C93.9197 15.2233 93.603 15.1 93.2097 15.1C92.8164 15.1 92.4964 15.2267 92.2497 15.48C92.0097 15.7267 91.8897 16.0533 91.8897 16.46V16.58C91.8897 16.9867 92.0097 17.3167 92.2497 17.57C92.4964 17.8167 92.8164 17.94 93.2097 17.94ZM96.4863 17.8H98.2263V13.2H96.5463V12H99.4863V17.8H101.106V19H96.4863V17.8ZM103.303 16.93C103.31 17.0767 103.343 17.2133 103.403 17.34C103.47 17.46 103.556 17.5667 103.663 17.66C103.776 17.7467 103.903 17.8167 104.043 17.87C104.19 17.9167 104.343 17.94 104.503 17.94C104.816 17.94 105.056 17.8867 105.223 17.78C105.39 17.6667 105.51 17.5333 105.583 17.38L106.663 17.98C106.603 18.1067 106.52 18.24 106.413 18.38C106.306 18.5133 106.166 18.6367 105.993 18.75C105.826 18.8633 105.62 18.9567 105.373 19.03C105.133 19.1033 104.85 19.14 104.523 19.14C104.15 19.14 103.81 19.08 103.503 18.96C103.196 18.84 102.93 18.6667 102.703 18.44C102.483 18.2133 102.31 17.9367 102.183 17.61C102.063 17.2833 102.003 16.9133 102.003 16.5V16.44C102.003 16.06 102.066 15.7133 102.193 15.4C102.326 15.0867 102.506 14.82 102.733 14.6C102.96 14.38 103.223 14.21 103.523 14.09C103.83 13.9633 104.156 13.9 104.503 13.9C104.93 13.9 105.296 13.9767 105.603 14.13C105.91 14.2767 106.163 14.4667 106.363 14.7C106.563 14.9267 106.71 15.18 106.803 15.46C106.896 15.7333 106.943 16 106.943 16.26V16.93H103.303ZM104.493 15.04C104.173 15.04 103.913 15.1233 103.713 15.29C103.513 15.45 103.383 15.6367 103.323 15.85H105.663C105.623 15.6167 105.496 15.4233 105.283 15.27C105.076 15.1167 104.813 15.04 104.493 15.04ZM118.406 16.58C118.406 16.9933 118.336 17.36 118.196 17.68C118.056 17.9933 117.866 18.26 117.626 18.48C117.386 18.6933 117.11 18.8567 116.796 18.97C116.49 19.0833 116.166 19.14 115.826 19.14C115.486 19.14 115.16 19.0833 114.846 18.97C114.54 18.8567 114.266 18.6933 114.026 18.48C113.786 18.26 113.596 17.9933 113.456 17.68C113.316 17.36 113.246 16.9933 113.246 16.58V16.46C113.246 16.0533 113.316 15.6933 113.456 15.38C113.596 15.06 113.786 14.79 114.026 14.57C114.266 14.35 114.54 14.1833 114.846 14.07C115.16 13.9567 115.486 13.9 115.826 13.9C116.166 13.9 116.49 13.9567 116.796 14.07C117.11 14.1833 117.386 14.35 117.626 14.57C117.866 14.79 118.056 15.06 118.196 15.38C118.336 15.6933 118.406 16.0533 118.406 16.46V16.58ZM115.826 17.94C116.006 17.94 116.176 17.91 116.336 17.85C116.496 17.79 116.636 17.7033 116.756 17.59C116.876 17.4767 116.97 17.34 117.036 17.18C117.11 17.0133 117.146 16.8267 117.146 16.62V16.42C117.146 16.2133 117.11 16.03 117.036 15.87C116.97 15.7033 116.876 15.5633 116.756 15.45C116.636 15.3367 116.496 15.25 116.336 15.19C116.176 15.13 116.006 15.1 115.826 15.1C115.646 15.1 115.476 15.13 115.316 15.19C115.156 15.25 115.016 15.3367 114.896 15.45C114.776 15.5633 114.68 15.7033 114.606 15.87C114.54 16.03 114.506 16.2133 114.506 16.42V16.62C114.506 16.8267 114.54 17.0133 114.606 17.18C114.68 17.34 114.776 17.4767 114.896 17.59C115.016 17.7033 115.156 17.79 115.316 17.85C115.476 17.91 115.646 17.94 115.826 17.94ZM120.483 19H119.223V14.04H120.483V14.78H120.663C120.776 14.5 120.959 14.2833 121.213 14.13C121.466 13.9767 121.763 13.9 122.103 13.9C122.343 13.9 122.566 13.94 122.773 14.02C122.986 14.0933 123.173 14.21 123.333 14.37C123.493 14.53 123.616 14.7333 123.703 14.98C123.796 15.2267 123.843 15.52 123.843 15.86V19H122.583V16.18C122.583 15.8267 122.496 15.55 122.323 15.35C122.156 15.1433 121.913 15.04 121.593 15.04C121.219 15.04 120.939 15.1667 120.753 15.42C120.573 15.6667 120.483 16 120.483 16.42V19ZM130.436 14.04H131.906V12H133.166V14.04H134.956V15.24H133.166V17.5C133.166 17.7 133.256 17.8 133.436 17.8H134.776V19H132.676C132.449 19 132.263 18.9267 132.116 18.78C131.976 18.6333 131.906 18.4467 131.906 18.22V15.24H130.436V14.04ZM137.533 19H136.273V12H137.533V14.84H137.713C137.839 14.54 138.026 14.31 138.273 14.15C138.519 13.9833 138.823 13.9 139.183 13.9C139.429 13.9 139.656 13.94 139.863 14.02C140.069 14.1 140.249 14.22 140.403 14.38C140.556 14.54 140.676 14.7467 140.763 15C140.849 15.2467 140.893 15.54 140.893 15.88V19H139.633V16.18C139.633 15.8267 139.546 15.55 139.373 15.35C139.206 15.1433 138.963 15.04 138.643 15.04C138.269 15.04 137.989 15.1667 137.803 15.42C137.623 15.6667 137.533 16 137.533 16.42V19ZM143.039 16.93C143.046 17.0767 143.079 17.2133 143.139 17.34C143.206 17.46 143.293 17.5667 143.399 17.66C143.513 17.7467 143.639 17.8167 143.779 17.87C143.926 17.9167 144.079 17.94 144.239 17.94C144.553 17.94 144.793 17.8867 144.959 17.78C145.126 17.6667 145.246 17.5333 145.319 17.38L146.399 17.98C146.339 18.1067 146.256 18.24 146.149 18.38C146.043 18.5133 145.903 18.6367 145.729 18.75C145.563 18.8633 145.356 18.9567 145.109 19.03C144.869 19.1033 144.586 19.14 144.259 19.14C143.886 19.14 143.546 19.08 143.239 18.96C142.933 18.84 142.666 18.6667 142.439 18.44C142.219 18.2133 142.046 17.9367 141.919 17.61C141.799 17.2833 141.739 16.9133 141.739 16.5V16.44C141.739 16.06 141.803 15.7133 141.929 15.4C142.063 15.0867 142.243 14.82 142.469 14.6C142.696 14.38 142.959 14.21 143.259 14.09C143.566 13.9633 143.893 13.9 144.239 13.9C144.666 13.9 145.033 13.9767 145.339 14.13C145.646 14.2767 145.899 14.4667 146.099 14.7C146.299 14.9267 146.446 15.18 146.539 15.46C146.633 15.7333 146.679 16 146.679 16.26V16.93H143.039ZM144.229 15.04C143.909 15.04 143.649 15.1233 143.449 15.29C143.249 15.45 143.119 15.6367 143.059 15.85H145.399C145.359 15.6167 145.233 15.4233 145.019 15.27C144.813 15.1167 144.549 15.04 144.229 15.04Z" fill="#495567"/>
</g>
<path fill-rule="evenodd" clip-rule="evenodd" d="M33.5501 16.2326C34.5379 15.0264 36.2329 14.1001 37.6831 14C37.9262 15.649 37.2547 17.2641 36.3672 18.4058C35.4185 19.6324 33.7813 20.5807 32.1968 20.5315C31.9078 18.9521 32.649 17.3268 33.5501 16.2326ZM38.0165 20.5333C39.9466 20.5333 41.9903 21.5773 43.4446 23.3763C38.677 25.9705 39.4494 32.7283 44.2667 34.5378C43.6044 35.9952 43.2865 36.645 42.4325 37.936C41.241 39.7367 39.5631 41.9805 37.4803 41.9963C36.6241 42.0052 36.0624 41.7496 35.4568 41.474C34.7549 41.1545 33.9939 40.8082 32.647 40.8157C31.3076 40.8222 30.5345 41.1643 29.8229 41.4791C29.2017 41.7539 28.6274 42.008 27.7641 41.9998C25.6831 41.9823 24.0921 39.9574 22.9007 38.1567C19.5714 33.1242 19.2198 27.2159 21.2742 24.0734C22.7356 21.8418 25.0403 20.5368 27.2048 20.5368C28.3584 20.5368 29.2881 20.8657 30.1741 21.1791C30.9805 21.4643 31.7507 21.7367 32.6204 21.7367C33.4252 21.7367 34.0869 21.488 34.8086 21.2167C35.6745 20.8913 36.6268 20.5333 38.0165 20.5333Z" fill="#495567"/>
</g>
<defs>
<filter id="filter0_d" x="0" y="0" width="167" height="64" filterUnits="userSpaceOnUse" color-interpolation-filters="sRGB">
<feFlood flood-opacity="0" result="BackgroundImageFix"/>
<feColorMatrix in="SourceAlpha" type="matrix" values="0 0 0 0 0 0 0 0 0 0 0 0 0 0 0 0 0 0 127 0"/>
<feOffset dy="4"/>
<feGaussianBlur stdDeviation="2"/>
<feColorMatrix type="matrix" values="0 0 0 0 0 0 0 0 0 0 0 0 0 0 0 0 0 0 0.25 0"/>
<feBlend mode="normal" in2="BackgroundImageFix" result="effect1_dropShadow"/>
<feBlend mode="normal" in="SourceGraphic" in2="effect1_dropShadow" result="shape"/>
</filter>
<clipPath id="clip0">
<rect width="91" height="39" fill="white" transform="translate(56 8)"/>
</clipPath>
</defs>
</svg>
