<svg width="190" height="64" viewBox="0 0 190 64" fill="none" xmlns="http://www.w3.org/2000/svg">
<g filter="url(#filter0_d)">
<rect x="4" width="182" height="56" rx="4" fill="#E5ECF4"/>
<g clip-path="url(#clip0)">
<path d="M61.2 35.92H67.2V43H64.8V41.44H64.44C64.28 41.96 63.9733 42.4 63.52 42.76C63.0667 43.1067 62.3867 43.28 61.48 43.28C60.84 43.28 60.24 43.16 59.68 42.92C59.12 42.68 58.6333 42.3267 58.22 41.86C57.8067 41.38 57.48 40.7933 57.24 40.1C57 39.3933 56.88 38.5733 56.88 37.64V34.36C56.88 33.4533 57.0067 32.6533 57.26 31.96C57.5267 31.2533 57.8867 30.66 58.34 30.18C58.8067 29.7 59.36 29.34 60 29.1C60.64 28.8467 61.3467 28.72 62.12 28.72C62.92 28.72 63.6333 28.8533 64.26 29.12C64.8867 29.3733 65.42 29.7333 65.86 30.2C66.3 30.6533 66.6333 31.1933 66.86 31.82C67.0867 32.4333 67.2 33.0933 67.2 33.8V34.04H64.56V33.8C64.56 32.96 64.34 32.3267 63.9 31.9C63.4733 31.46 62.8667 31.24 62.08 31.24C61.3333 31.24 60.72 31.4933 60.24 32C59.76 32.4933 59.52 33.3467 59.52 34.56V37.52C59.52 39.68 60.4 40.76 62.16 40.76C62.9467 40.76 63.54 40.5533 63.94 40.14C64.3533 39.7133 64.56 39.1467 64.56 38.44H61.2V35.92ZM78.6332 38.16C78.6332 38.9867 78.4932 39.72 78.2132 40.36C77.9332 40.9867 77.5532 41.52 77.0732 41.96C76.5932 42.3867 76.0399 42.7133 75.4132 42.94C74.7999 43.1667 74.1532 43.28 73.4732 43.28C72.7932 43.28 72.1399 43.1667 71.5132 42.94C70.8999 42.7133 70.3532 42.3867 69.8732 41.96C69.3932 41.52 69.0132 40.9867 68.7332 40.36C68.4532 39.72 68.3132 38.9867 68.3132 38.16V37.92C68.3132 37.1067 68.4532 36.3867 68.7332 35.76C69.0132 35.12 69.3932 34.58 69.8732 34.14C70.3532 33.7 70.8999 33.3667 71.5132 33.14C72.1399 32.9133 72.7932 32.8 73.4732 32.8C74.1532 32.8 74.7999 32.9133 75.4132 33.14C76.0399 33.3667 76.5932 33.7 77.0732 34.14C77.5532 34.58 77.9332 35.12 78.2132 35.76C78.4932 36.3867 78.6332 37.1067 78.6332 37.92V38.16ZM73.4732 40.88C73.8332 40.88 74.1732 40.82 74.4932 40.7C74.8132 40.58 75.0932 40.4067 75.3332 40.18C75.5732 39.9533 75.7599 39.68 75.8932 39.36C76.0399 39.0267 76.1132 38.6533 76.1132 38.24V37.84C76.1132 37.4267 76.0399 37.06 75.8932 36.74C75.7599 36.4067 75.5732 36.1267 75.3332 35.9C75.0932 35.6733 74.8132 35.5 74.4932 35.38C74.1732 35.26 73.8332 35.2 73.4732 35.2C73.1132 35.2 72.7732 35.26 72.4532 35.38C72.1332 35.5 71.8532 35.6733 71.6132 35.9C71.3732 36.1267 71.1799 36.4067 71.0332 36.74C70.8999 37.06 70.8332 37.4267 70.8332 37.84V38.24C70.8332 38.6533 70.8999 39.0267 71.0332 39.36C71.1799 39.68 71.3732 39.9533 71.6132 40.18C71.8532 40.4067 72.1332 40.58 72.4532 40.7C72.7732 40.82 73.1132 40.88 73.4732 40.88ZM89.9865 38.16C89.9865 38.9867 89.8465 39.72 89.5665 40.36C89.2865 40.9867 88.9065 41.52 88.4265 41.96C87.9465 42.3867 87.3931 42.7133 86.7665 42.94C86.1531 43.1667 85.5065 43.28 84.8265 43.28C84.1465 43.28 83.4931 43.1667 82.8665 42.94C82.2531 42.7133 81.7065 42.3867 81.2265 41.96C80.7465 41.52 80.3665 40.9867 80.0865 40.36C79.8065 39.72 79.6665 38.9867 79.6665 38.16V37.92C79.6665 37.1067 79.8065 36.3867 80.0865 35.76C80.3665 35.12 80.7465 34.58 81.2265 34.14C81.7065 33.7 82.2531 33.3667 82.8665 33.14C83.4931 32.9133 84.1465 32.8 84.8265 32.8C85.5065 32.8 86.1531 32.9133 86.7665 33.14C87.3931 33.3667 87.9465 33.7 88.4265 34.14C88.9065 34.58 89.2865 35.12 89.5665 35.76C89.8465 36.3867 89.9865 37.1067 89.9865 37.92V38.16ZM84.8265 40.88C85.1865 40.88 85.5265 40.82 85.8465 40.7C86.1665 40.58 86.4465 40.4067 86.6865 40.18C86.9265 39.9533 87.1131 39.68 87.2465 39.36C87.3931 39.0267 87.4665 38.6533 87.4665 38.24V37.84C87.4665 37.4267 87.3931 37.06 87.2465 36.74C87.1131 36.4067 86.9265 36.1267 86.6865 35.9C86.4465 35.6733 86.1665 35.5 85.8465 35.38C85.5265 35.26 85.1865 35.2 84.8265 35.2C84.4665 35.2 84.1265 35.26 83.8065 35.38C83.4865 35.5 83.2065 35.6733 82.9665 35.9C82.7265 36.1267 82.5331 36.4067 82.3865 36.74C82.2531 37.06 82.1865 37.4267 82.1865 37.84V38.24C82.1865 38.6533 82.2531 39.0267 82.3865 39.36C82.5331 39.68 82.7265 39.9533 82.9665 40.18C83.2065 40.4067 83.4865 40.58 83.8065 40.7C84.1265 40.82 84.4665 40.88 84.8265 40.88ZM98.6997 41.56H98.3397C98.233 41.7867 98.0997 42.0067 97.9397 42.22C97.793 42.42 97.593 42.6 97.3397 42.76C97.0997 42.92 96.8064 43.0467 96.4597 43.14C96.1264 43.2333 95.7197 43.28 95.2397 43.28C94.6264 43.28 94.053 43.1733 93.5197 42.96C92.9997 42.7333 92.5397 42.4067 92.1397 41.98C91.753 41.54 91.4464 41.0067 91.2197 40.38C91.0064 39.7533 90.8997 39.0333 90.8997 38.22V37.86C90.8997 37.06 91.013 36.3467 91.2397 35.72C91.4797 35.0933 91.7997 34.5667 92.1997 34.14C92.613 33.7 93.0864 33.3667 93.6197 33.14C94.1664 32.9133 94.7397 32.8 95.3397 32.8C96.1397 32.8 96.773 32.9533 97.2397 33.26C97.7064 33.5533 98.073 33.9733 98.3397 34.52H98.6997V33.08H101.22V45.44C101.22 45.8933 101.073 46.2667 100.78 46.56C100.5 46.8533 100.133 47 99.6797 47H92.9997V44.6H98.1597C98.5197 44.6 98.6997 44.4 98.6997 44V41.56ZM96.0597 40.88C96.8464 40.88 97.4797 40.6333 97.9597 40.14C98.453 39.6333 98.6997 38.9733 98.6997 38.16V37.92C98.6997 37.1067 98.453 36.4533 97.9597 35.96C97.4797 35.4533 96.8464 35.2 96.0597 35.2C95.273 35.2 94.633 35.4467 94.1397 35.94C93.6597 36.42 93.4197 37.08 93.4197 37.92V38.16C93.4197 39 93.6597 39.6667 94.1397 40.16C94.633 40.64 95.273 40.88 96.0597 40.88ZM102.913 40.6H106.393V31.4H103.033V29H108.913V40.6H112.153V43H102.913V40.6ZM116.546 38.86C116.56 39.1533 116.626 39.4267 116.746 39.68C116.88 39.92 117.053 40.1333 117.266 40.32C117.493 40.4933 117.746 40.6333 118.026 40.74C118.32 40.8333 118.626 40.88 118.946 40.88C119.573 40.88 120.053 40.7733 120.386 40.56C120.72 40.3333 120.96 40.0667 121.106 39.76L123.266 40.96C123.146 41.2133 122.98 41.48 122.766 41.76C122.553 42.0267 122.273 42.2733 121.926 42.5C121.593 42.7267 121.18 42.9133 120.686 43.06C120.206 43.2067 119.64 43.28 118.986 43.28C118.24 43.28 117.56 43.16 116.946 42.92C116.333 42.68 115.8 42.3333 115.346 41.88C114.906 41.4267 114.56 40.8733 114.306 40.22C114.066 39.5667 113.946 38.8267 113.946 38V37.88C113.946 37.12 114.073 36.4267 114.326 35.8C114.593 35.1733 114.953 34.64 115.406 34.2C115.86 33.76 116.386 33.42 116.986 33.18C117.6 32.9267 118.253 32.8 118.946 32.8C119.8 32.8 120.533 32.9533 121.146 33.26C121.76 33.5533 122.266 33.9333 122.666 34.4C123.066 34.8533 123.36 35.36 123.546 35.92C123.733 36.4667 123.826 37 123.826 37.52V38.86H116.546ZM118.926 35.08C118.286 35.08 117.766 35.2467 117.366 35.58C116.966 35.9 116.706 36.2733 116.586 36.7H121.266C121.186 36.2333 120.933 35.8467 120.506 35.54C120.093 35.2333 119.566 35.08 118.926 35.08ZM128.199 37.72V43H125.559V29H131.039C131.759 29 132.386 29.12 132.919 29.36C133.453 29.5867 133.893 29.8933 134.239 30.28C134.599 30.6533 134.866 31.0867 135.039 31.58C135.226 32.06 135.319 32.5533 135.319 33.06V33.54C135.319 34.06 135.226 34.5733 135.039 35.08C134.866 35.5733 134.599 36.02 134.239 36.42C133.893 36.8067 133.453 37.12 132.919 37.36C132.386 37.6 131.759 37.72 131.039 37.72H128.199ZM128.199 35.2H130.779C131.366 35.2 131.826 35.04 132.159 34.72C132.506 34.4 132.679 33.9867 132.679 33.48V33.24C132.679 32.7333 132.506 32.32 132.159 32C131.826 31.68 131.366 31.52 130.779 31.52H128.199V35.2ZM136.973 40.6H140.453V31.4H137.093V29H142.973V40.6H146.213V43H136.973V40.6ZM154.806 41.56C154.539 42.1867 154.166 42.6333 153.686 42.9C153.206 43.1533 152.646 43.28 152.006 43.28C151.406 43.28 150.839 43.1667 150.306 42.94C149.786 42.7133 149.326 42.38 148.926 41.94C148.526 41.5 148.206 40.9667 147.966 40.34C147.739 39.7133 147.626 39 147.626 38.2V37.88C147.626 37.0933 147.739 36.3867 147.966 35.76C148.193 35.1333 148.499 34.6 148.886 34.16C149.273 33.72 149.719 33.3867 150.226 33.16C150.746 32.92 151.299 32.8 151.886 32.8C152.593 32.8 153.159 32.92 153.586 33.16C154.026 33.4 154.373 33.7733 154.626 34.28H154.986V33.08H157.506V40C157.506 40.4 157.686 40.6 158.046 40.6H158.426V43H156.706C156.253 43 155.879 42.8667 155.586 42.6C155.306 42.3333 155.166 41.9867 155.166 41.56H154.806ZM152.566 40.88C153.299 40.88 153.886 40.64 154.326 40.16C154.766 39.6667 154.986 39 154.986 38.16V37.92C154.986 37.08 154.766 36.42 154.326 35.94C153.886 35.4467 153.299 35.2 152.566 35.2C151.833 35.2 151.246 35.4467 150.806 35.94C150.366 36.42 150.146 37.08 150.146 37.92V38.16C150.146 39 150.366 39.6667 150.806 40.16C151.246 40.64 151.833 40.88 152.566 40.88ZM166.459 33.08H168.979V45.44C168.979 45.8933 168.832 46.2667 168.539 46.56C168.259 46.8533 167.892 47 167.439 47H161.539V44.6H165.919C166.279 44.6 166.459 44.4 166.459 44V41.56H166.099C165.659 42.7067 164.712 43.28 163.259 43.28C162.766 43.28 162.306 43.2 161.879 43.04C161.452 42.88 161.079 42.6333 160.759 42.3C160.439 41.9667 160.186 41.5533 159.999 41.06C159.826 40.5533 159.739 39.96 159.739 39.28V33.08H162.259V38.76C162.259 39.4667 162.426 40.02 162.759 40.42C163.092 40.8067 163.592 41 164.259 41C165.019 41 165.572 40.76 165.919 40.28C166.279 39.7867 166.459 39.12 166.459 38.28V33.08Z" fill="#495567"/>
<path d="M58.6 15.46H61.6V19H60.4V18.22H60.22C60.14 18.48 59.9867 18.7 59.76 18.88C59.5333 19.0533 59.1933 19.14 58.74 19.14C58.42 19.14 58.12 19.08 57.84 18.96C57.56 18.84 57.3167 18.6633 57.11 18.43C56.9033 18.19 56.74 17.8967 56.62 17.55C56.5 17.1967 56.44 16.7867 56.44 16.32V14.68C56.44 14.2267 56.5033 13.8267 56.63 13.48C56.7633 13.1267 56.9433 12.83 57.17 12.59C57.4033 12.35 57.68 12.17 58 12.05C58.32 11.9233 58.6733 11.86 59.06 11.86C59.46 11.86 59.8167 11.9267 60.13 12.06C60.4433 12.1867 60.71 12.3667 60.93 12.6C61.15 12.8267 61.3167 13.0967 61.43 13.41C61.5433 13.7167 61.6 14.0467 61.6 14.4V14.52H60.28V14.4C60.28 13.98 60.17 13.6633 59.95 13.45C59.7367 13.23 59.4333 13.12 59.04 13.12C58.6667 13.12 58.36 13.2467 58.12 13.5C57.88 13.7467 57.76 14.1733 57.76 14.78V16.26C57.76 17.34 58.2 17.88 59.08 17.88C59.4733 17.88 59.77 17.7767 59.97 17.57C60.1767 17.3567 60.28 17.0733 60.28 16.72H58.6V15.46ZM63.5666 16.93C63.5733 17.0767 63.6066 17.2133 63.6666 17.34C63.7333 17.46 63.82 17.5667 63.9266 17.66C64.04 17.7467 64.1666 17.8167 64.3066 17.87C64.4533 17.9167 64.6066 17.94 64.7666 17.94C65.08 17.94 65.32 17.8867 65.4866 17.78C65.6533 17.6667 65.7733 17.5333 65.8466 17.38L66.9266 17.98C66.8666 18.1067 66.7833 18.24 66.6766 18.38C66.57 18.5133 66.43 18.6367 66.2566 18.75C66.09 18.8633 65.8833 18.9567 65.6366 19.03C65.3966 19.1033 65.1133 19.14 64.7866 19.14C64.4133 19.14 64.0733 19.08 63.7666 18.96C63.46 18.84 63.1933 18.6667 62.9666 18.44C62.7466 18.2133 62.5733 17.9367 62.4466 17.61C62.3266 17.2833 62.2666 16.9133 62.2666 16.5V16.44C62.2666 16.06 62.33 15.7133 62.4566 15.4C62.59 15.0867 62.77 14.82 62.9966 14.6C63.2233 14.38 63.4866 14.21 63.7866 14.09C64.0933 13.9633 64.42 13.9 64.7666 13.9C65.1933 13.9 65.56 13.9767 65.8666 14.13C66.1733 14.2767 66.4266 14.4667 66.6266 14.7C66.8266 14.9267 66.9733 15.18 67.0666 15.46C67.16 15.7333 67.2066 16 67.2066 16.26V16.93H63.5666ZM64.7566 15.04C64.4366 15.04 64.1766 15.1233 63.9766 15.29C63.7766 15.45 63.6466 15.6367 63.5866 15.85H65.9266C65.8866 15.6167 65.76 15.4233 65.5466 15.27C65.34 15.1167 65.0766 15.04 64.7566 15.04ZM67.9932 14.04H69.4632V12H70.7232V14.04H72.5132V15.24H70.7232V17.5C70.7232 17.7 70.8132 17.8 70.9932 17.8H72.3332V19H70.2332C70.0066 19 69.8199 18.9267 69.6732 18.78C69.5332 18.6333 69.4632 18.4467 69.4632 18.22V15.24H67.9932V14.04ZM79.5765 17.8H81.2565V15.24H79.6965V14.04H82.5165V17.8H83.9565V19H79.5765V17.8ZM82.8265 12.57C82.8265 12.7033 82.7998 12.83 82.7465 12.95C82.6998 13.0633 82.6331 13.1633 82.5465 13.25C82.4598 13.33 82.3565 13.3967 82.2365 13.45C82.1231 13.4967 82.0031 13.52 81.8765 13.52C81.7431 13.52 81.6198 13.4967 81.5065 13.45C81.3931 13.3967 81.2931 13.33 81.2065 13.25C81.1198 13.1633 81.0498 13.0633 80.9965 12.95C80.9498 12.83 80.9265 12.7033 80.9265 12.57C80.9265 12.4367 80.9498 12.3133 80.9965 12.2C81.0498 12.08 81.1198 11.98 81.2065 11.9C81.2931 11.8133 81.3931 11.7467 81.5065 11.7C81.6198 11.6467 81.7431 11.62 81.8765 11.62C82.0031 11.62 82.1231 11.6467 82.2365 11.7C82.3565 11.7467 82.4598 11.8133 82.5465 11.9C82.6331 11.98 82.6998 12.08 82.7465 12.2C82.7998 12.3133 82.8265 12.4367 82.8265 12.57ZM85.0231 14.04H86.4931V12H87.7531V14.04H89.5431V15.24H87.7531V17.5C87.7531 17.7 87.8431 17.8 88.0231 17.8H89.3631V19H87.2631C87.0364 19 86.8498 18.9267 86.7031 18.78C86.5631 18.6333 86.4931 18.4467 86.4931 18.22V15.24H85.0231V14.04ZM101.376 16.58C101.376 16.9933 101.306 17.36 101.166 17.68C101.026 17.9933 100.836 18.26 100.596 18.48C100.356 18.6933 100.08 18.8567 99.7663 18.97C99.4597 19.0833 99.1363 19.14 98.7963 19.14C98.4563 19.14 98.1297 19.0833 97.8163 18.97C97.5097 18.8567 97.2363 18.6933 96.9963 18.48C96.7563 18.26 96.5663 17.9933 96.4263 17.68C96.2863 17.36 96.2163 16.9933 96.2163 16.58V16.46C96.2163 16.0533 96.2863 15.6933 96.4263 15.38C96.5663 15.06 96.7563 14.79 96.9963 14.57C97.2363 14.35 97.5097 14.1833 97.8163 14.07C98.1297 13.9567 98.4563 13.9 98.7963 13.9C99.1363 13.9 99.4597 13.9567 99.7663 14.07C100.08 14.1833 100.356 14.35 100.596 14.57C100.836 14.79 101.026 15.06 101.166 15.38C101.306 15.6933 101.376 16.0533 101.376 16.46V16.58ZM98.7963 17.94C98.9763 17.94 99.1463 17.91 99.3063 17.85C99.4663 17.79 99.6063 17.7033 99.7263 17.59C99.8463 17.4767 99.9397 17.34 100.006 17.18C100.08 17.0133 100.116 16.8267 100.116 16.62V16.42C100.116 16.2133 100.08 16.03 100.006 15.87C99.9397 15.7033 99.8463 15.5633 99.7263 15.45C99.6063 15.3367 99.4663 15.25 99.3063 15.19C99.1463 15.13 98.9763 15.1 98.7963 15.1C98.6163 15.1 98.4463 15.13 98.2863 15.19C98.1263 15.25 97.9863 15.3367 97.8663 15.45C97.7463 15.5633 97.6497 15.7033 97.5763 15.87C97.5097 16.03 97.4763 16.2133 97.4763 16.42V16.62C97.4763 16.8267 97.5097 17.0133 97.5763 17.18C97.6497 17.34 97.7463 17.4767 97.8663 17.59C97.9863 17.7033 98.1263 17.79 98.2863 17.85C98.4463 17.91 98.6163 17.94 98.7963 17.94ZM103.453 19H102.193V14.04H103.453V14.78H103.633C103.746 14.5 103.93 14.2833 104.183 14.13C104.436 13.9767 104.733 13.9 105.073 13.9C105.313 13.9 105.536 13.94 105.743 14.02C105.956 14.0933 106.143 14.21 106.303 14.37C106.463 14.53 106.586 14.7333 106.673 14.98C106.766 15.2267 106.813 15.52 106.813 15.86V19H105.553V16.18C105.553 15.8267 105.466 15.55 105.293 15.35C105.126 15.1433 104.883 15.04 104.563 15.04C104.19 15.04 103.91 15.1667 103.723 15.42C103.543 15.6667 103.453 16 103.453 16.42V19Z" fill="#495567"/>
</g>
<path fill-rule="evenodd" clip-rule="evenodd" d="M21.3522 14.2371C22.077 13.8877 22.908 13.9252 23.6053 14.3449L37.4772 22.423L33.504 26.4147L21.3522 14.2371ZM20 16.4214C20 16.0498 20.0825 15.6887 20.2358 15.3641L32.3848 27.5391L20.2379 39.7437C20.083 39.426 20 39.0702 20 38.697V16.4214ZM33.5056 28.6619L21.3734 40.8517C21.6954 41.0008 22.0379 41.0658 22.38 41.0658C22.8023 41.0658 23.2237 40.9648 23.6053 40.7354L37.4799 32.6452L33.5056 28.6619ZM42.7456 25.4907C42.7504 25.4933 42.7556 25.4965 42.7604 25.4996C43.4767 25.9342 43.9044 26.6944 43.9044 27.5328C43.9044 28.3712 43.4767 29.1314 42.7604 29.5664C42.7556 29.5691 38.8966 31.8189 38.8966 31.8189L34.6242 27.5375L38.894 23.2477L42.7456 25.4907Z" fill="#495567"/>
</g>
<defs>
<filter id="filter0_d" x="0" y="0" width="190" height="64" filterUnits="userSpaceOnUse" color-interpolation-filters="sRGB">
<feFlood flood-opacity="0" result="BackgroundImageFix"/>
<feColorMatrix in="SourceAlpha" type="matrix" values="0 0 0 0 0 0 0 0 0 0 0 0 0 0 0 0 0 0 127 0"/>
<feOffset dy="4"/>
<feGaussianBlur stdDeviation="2"/>
<feColorMatrix type="matrix" values="0 0 0 0 0 0 0 0 0 0 0 0 0 0 0 0 0 0 0.25 0"/>
<feBlend mode="normal" in2="BackgroundImageFix" result="effect1_dropShadow"/>
<feBlend mode="normal" in="SourceGraphic" in2="effect1_dropShadow" result="shape"/>
</filter>
<clipPath id="clip0">
<rect width="114" height="39" fill="white" transform="translate(56 8)"/>
</clipPath>
</defs>
</svg>
