<svg xmlns="http://www.w3.org/2000/svg" width="108" height="29" fill="none" xmlns:v="https://vecta.io/nano"><path fill-rule="evenodd" d="M107.097 23.2V28h-8.4c-.907 0-1.647-.293-2.22-.88s-.86-1.333-.86-2.24V12.96h-5.88v-4.8h5.88V0h5.04v8.16h7.16v4.8h-7.16V22c0 .8.36 1.2 1.08 1.2h5.36zM9.12 28.56c2.613 0 4.64-.587 6.08-1.76s2.16-2.747 2.16-4.72v-.24c0-1.787-.64-3.18-1.92-4.18s-2.933-1.607-4.96-1.82c-1.76-.187-2.973-.42-3.64-.7s-1-.74-1-1.38c0-.453.213-.833.64-1.14s1.067-.46 1.92-.46c.933 0 1.693.207 2.28.62s1 .98 1.24 1.7l4.56-1.84c-.213-.56-.52-1.14-.92-1.74S14.64 9.753 14 9.26s-1.42-.893-2.34-1.2S9.653 7.6 8.4 7.6a9.87 9.87 0 0 0-2.8.4c-.907.267-1.707.66-2.4 1.18s-1.253 1.153-1.68 1.9-.64 1.613-.64 2.6v.24c0 1.893.66 3.327 1.98 4.3s3.1 1.553 5.34 1.74c.827.08 1.513.187 2.06.32s.98.3 1.3.5.54.413.66.64.18.473.18.74c0 .453-.233.873-.7 1.26s-1.327.58-2.58.58c-1.413 0-2.46-.32-3.14-.96s-1.127-1.387-1.34-2.24L0 22.32c.133.693.393 1.407.78 2.14s.94 1.4 1.66 2 1.627 1.1 2.72 1.5 2.413.6 3.96.6zm22.454 0c2.827 0 5.087-.72 6.78-2.16s2.767-3.333 3.22-5.68l-4.96-1.24c-.24 1.307-.767 2.347-1.58 3.12s-1.993 1.16-3.54 1.16c-.72 0-1.4-.113-2.04-.34s-1.2-.567-1.68-1.02-.86-1.02-1.14-1.7-.42-1.46-.42-2.34v-.24c0-.88.14-1.673.42-2.38s.66-1.307 1.14-1.8 1.04-.873 1.68-1.14a5.25 5.25 0 0 1 2.04-.4c1.547 0 2.747.427 3.6 1.28s1.36 1.867 1.52 3.04l4.96-1.28c-.453-2.347-1.54-4.24-3.26-5.68s-3.967-2.16-6.74-2.16c-1.44 0-2.793.24-4.06.72s-2.373 1.173-3.32 2.08-1.687 2-2.22 3.28-.8 2.72-.8 4.32v.48c0 1.6.267 3.027.8 4.28s1.267 2.307 2.2 3.16 2.033 1.507 3.3 1.96 2.633.68 4.1.68zm26.354-.68a11.27 11.27 0 0 1-3.9.68 11.27 11.27 0 0 1-3.9-.68c-1.24-.453-2.34-1.113-3.3-1.98s-1.72-1.933-2.28-3.2-.84-2.727-.84-4.38v-.48c0-1.627.28-3.073.84-4.34s1.32-2.34 2.28-3.22 2.06-1.547 3.3-2 2.54-.68 3.9-.68 2.66.227 3.9.68 2.34 1.12 3.3 2 1.72 1.953 2.28 3.22.84 2.713.84 4.34v.48c0 1.653-.28 3.113-.84 4.38s-1.32 2.333-2.28 3.2-2.06 1.527-3.3 1.98zm-3.9-4.12c-.72 0-1.4-.12-2.04-.36a4.95 4.95 0 0 1-1.68-1.04 4.91 4.91 0 0 1-1.14-1.66c-.28-.653-.42-1.393-.42-2.22v-.8c0-.827.14-1.567.42-2.22a4.91 4.91 0 0 1 1.14-1.66 4.95 4.95 0 0 1 1.68-1.04c.64-.24 1.32-.36 2.04-.36s1.4.12 2.04.36a4.95 4.95 0 0 1 1.68 1.04 4.91 4.91 0 0 1 1.14 1.66c.28.653.42 1.393.42 2.22v.8c0 .827-.14 1.567-.42 2.22a4.91 4.91 0 0 1-1.14 1.66 4.95 4.95 0 0 1-1.68 1.04c-.64.24-1.32.36-2.04.36zm26.594 4.12a11.27 11.27 0 0 1-3.9.68 11.27 11.27 0 0 1-3.9-.68c-1.24-.453-2.34-1.113-3.3-1.98s-1.72-1.933-2.28-3.2-.84-2.727-.84-4.38v-.48c0-1.627.28-3.073.84-4.34s1.32-2.34 2.28-3.22 2.06-1.547 3.3-2 2.54-.68 3.9-.68 2.66.227 3.9.68 2.34 1.12 3.3 2 1.72 1.953 2.28 3.22.84 2.713.84 4.34v.48c0 1.653-.28 3.113-.84 4.38s-1.32 2.333-2.28 3.2-2.06 1.527-3.3 1.98zm-3.9-4.12c-.72 0-1.4-.12-2.04-.36a4.95 4.95 0 0 1-1.68-1.04 4.91 4.91 0 0 1-1.14-1.66c-.28-.653-.42-1.393-.42-2.22v-.8c0-.827.14-1.567.42-2.22a4.91 4.91 0 0 1 1.14-1.66 4.95 4.95 0 0 1 1.68-1.04c.64-.24 1.32-.36 2.04-.36s1.4.12 2.04.36a4.95 4.95 0 0 1 1.68 1.04 4.91 4.91 0 0 1 1.14 1.66c.28.653.42 1.393.42 2.22v.8c0 .827-.14 1.567-.42 2.22a4.91 4.91 0 0 1-1.14 1.66 4.95 4.95 0 0 1-1.68 1.04c-.64.24-1.32.36-2.04.36z" fill="#495567"/></svg>